<svg width="300" height="390" viewBox="0 0 300 390" fill="none" xmlns="http://www.w3.org/2000/svg">
<rect x="91.998" y="32" width="36" height="36" rx="18" fill="#171315"/>
<g clip-path="url(#clip0_2002_291)">
<path d="M121.429 48.8567H120.281V51.1442H121.429V48.8567Z" fill="#D5F959"/>
<path d="M120.281 51.1445H119.141V52.2845H120.281V51.1445Z" fill="#D5F959"/>
<path d="M120.281 47.7166H119.141V48.8566H120.281V47.7166Z" fill="#D5F959"/>
<path d="M119.14 52.2842H118V53.4317H119.14V52.2842Z" fill="#D5F959"/>
<path d="M119.14 46.5693H118V47.7168H119.14V46.5693Z" fill="#D5F959"/>
<path d="M118 53.4316H115.713V54.5716H118V53.4316Z" fill="#D5F959"/>
<path d="M118 45.4287H115.713V46.5687H118V45.4287Z" fill="#D5F959"/>
<path d="M115.713 54.5713H113.426V55.7113H115.713V54.5713Z" fill="#D5F959"/>
<path d="M114.566 47.7166H113.426V52.2841H114.566V47.7166Z" fill="#D5F959"/>
<path d="M115.713 44.2891H113.426V45.4291H115.713V44.2891Z" fill="#D5F959"/>
<path d="M113.427 52.2842H112.287V53.4317H113.427V52.2842Z" fill="#D5F959"/>
<path d="M113.427 46.5693H112.287V47.7168H113.427V46.5693Z" fill="#D5F959"/>
<path d="M113.427 55.7119H106.572V56.8594H113.427V55.7119Z" fill="#D5F959"/>
<path d="M112.286 53.4316H107.711V54.5716H112.286V53.4316Z" fill="#D5F959"/>
<path d="M111.138 47.7166H108.858V48.8566H107.711V51.1441H108.858V52.2841H111.138V51.1441H112.286V48.8566H111.138V47.7166Z" fill="#D5F959"/>
<path d="M112.286 45.4287H107.711V46.5687H112.286V45.4287Z" fill="#D5F959"/>
<path d="M113.427 43.1416H106.572V44.2891H113.427V43.1416Z" fill="#D5F959"/>
<path d="M107.712 52.2842H106.572V53.4317H107.712V52.2842Z" fill="#D5F959"/>
<path d="M107.712 46.5693H106.572V47.7168H107.712V46.5693Z" fill="#D5F959"/>
<path d="M106.571 54.5713H104.283V55.7113H106.571V54.5713Z" fill="#D5F959"/>
<path d="M106.571 47.7166H105.424V52.2841H106.571V47.7166Z" fill="#D5F959"/>
<path d="M106.571 44.2891H104.283V45.4291H106.571V44.2891Z" fill="#D5F959"/>
<path d="M104.283 53.4316H101.996V54.5716H104.283V53.4316Z" fill="#D5F959"/>
<path d="M104.284 45.4287H101.996V46.5687H104.284V45.4287Z" fill="#D5F959"/>
<path d="M101.995 52.2842H100.855V53.4317H101.995V52.2842Z" fill="#D5F959"/>
<path d="M101.995 46.5693H100.855V47.7168H101.995V46.5693Z" fill="#D5F959"/>
<path d="M100.857 51.1445H99.7168V52.2845H100.857V51.1445Z" fill="#D5F959"/>
<path d="M100.857 47.7168H99.7168V48.8568H100.857V47.7168Z" fill="#D5F959"/>
<path d="M99.7159 48.8567H98.5684V51.1442H99.7159V48.8567Z" fill="#D5F959"/>
</g>
<rect x="91.9983" y="129" width="36" height="36" rx="18" fill="#171315"/>
<path d="M119.14 145.282H118V153.285H119.14V145.282Z" fill="#D5F959"/>
<path d="M116.853 155.572H105.43V154.432H104.283V155.572H103.143V159H119.14V155.572H118V153.285H116.853V155.572ZM116.853 157.86H114.573V156.712H116.853V157.86Z" fill="#D5F959"/>
<path d="M118.001 144.143H116.854V145.283H118.001V144.143Z" fill="#D5F959"/>
<path d="M115.713 145.282H114.573V148.717H115.713V145.282Z" fill="#D5F959"/>
<path d="M116.853 143.003H114.573V144.143H116.853V143.003Z" fill="#D5F959"/>
<path d="M112.285 145.282H111.145V148.717H112.285V145.282Z" fill="#D5F959"/>
<path d="M108.859 145.282H107.711V148.717H108.859V145.282Z" fill="#D5F959"/>
<path d="M107.711 143.002H114.574V141.855H108.859V136.14H107.711V143.002Z" fill="#D5F959"/>
<path d="M107.71 135H105.43V136.14H107.71V135Z" fill="#D5F959"/>
<path d="M104.283 149.857H105.43V136.14H104.283V144.142H103.143V145.282H104.283V149.857Z" fill="#D5F959"/>
<path d="M104.283 153.285H103.143V154.432H104.283V153.285Z" fill="#D5F959"/>
<path d="M103.144 150.997H102.004V153.285H103.144V150.997Z" fill="#D5F959"/>
<path d="M103.144 145.282H102.004V146.43H103.144V145.282Z" fill="#D5F959"/>
<path d="M102.003 146.43H100.856V150.997H102.003V146.43Z" fill="#D5F959"/>
<rect x="91.9983" y="226" width="36" height="36" rx="18" fill="#171315"/>
<g clip-path="url(#clip1_2002_291)">
<g clip-path="url(#clip2_2002_291)">
<path d="M119.042 251.141H118.092V252.097H113.33V248.284H112.38V252.097H109.523V251.141H108.567V252.097H101.905V251.141H100.948V252.097H99.9983V253.047H119.998V252.097H119.042V251.141Z" fill="#D5F959"/>
<path d="M118.093 249.24H117.143V251.14H118.093V249.24Z" fill="#D5F959"/>
<path d="M117.142 247.334H116.186V249.24H117.142V247.334Z" fill="#D5F959"/>
<path d="M114.28 246.384V247.334H116.186V245.428H115.236V246.384H114.28Z" fill="#D5F959"/>
<path d="M114.28 247.334H113.33V248.284H114.28V247.334Z" fill="#D5F959"/>
<path d="M108.567 250.191H106.66V251.141H108.567V250.191Z" fill="#D5F959"/>
<path d="M108.567 247.334H107.617V248.284H108.567V247.334Z" fill="#D5F959"/>
<path d="M107.617 248.284H106.66V249.241H107.617V248.284Z" fill="#D5F959"/>
<path d="M106.661 249.24H103.805V250.19H106.661V249.24Z" fill="#D5F959"/>
<path d="M109.523 245.428V246.384H108.566V247.334H109.523V249.241H110.473V247.334H111.423V246.384H110.473V245.428H111.423V246.384H112.379V245.428H115.235V244.478H110.473V241.625H111.423V240.669H112.379V239.716H113.329V236.859H112.379V235.903H111.423V234.953H108.566V235.903H107.616V236.859H106.66V239.716H107.616V240.666H108.566V241.625H109.523V244.481H104.76V245.431L109.523 245.428ZM109.523 236.859H111.423V238.766H110.473V237.812H109.523V236.859Z" fill="#D5F959"/>
<path d="M104.761 245.428H103.805V247.334H104.761V245.428Z" fill="#D5F959"/>
<path d="M103.804 247.334H102.854V249.24H103.804V247.334Z" fill="#D5F959"/>
<path d="M102.855 249.24H101.905V251.14H102.855V249.24Z" fill="#D5F959"/>
</g>
</g>
<rect x="91.9983" y="323" width="36" height="36" rx="18" fill="#171315"/>
<g clip-path="url(#clip3_2002_291)">
<path d="M117.616 348.144H118.572V347.194H119.522V334.812H118.572V335.762H117.616V336.712H114.76V337.669H105.235V338.619H113.81V343.381H114.76V342.431H117.616V341.475H118.572V342.431H117.616V343.381H114.76V344.331H113.81V349.094H105.235V350.05H114.76V349.094H117.616V348.144Z" fill="#D5F959"/>
<path d="M118.573 333.856H116.666V334.812H118.573V333.856Z" fill="#D5F959"/>
<path d="M116.667 332.906H113.811V333.856H116.667V332.906Z" fill="#D5F959"/>
<path d="M113.81 343.382H105.235V344.332H113.81V343.382Z" fill="#D5F959"/>
<path d="M109.048 346.237H106.192V347.193H109.048V346.237Z" fill="#D5F959"/>
<path d="M109.048 340.525H106.192V341.475H109.048V340.525Z" fill="#D5F959"/>
<path d="M113.81 331.95H106.192V332.906H113.81V331.95Z" fill="#D5F959"/>
<path d="M105.235 348.143H102.379V349.093H105.235V348.143Z" fill="#D5F959"/>
<path d="M105.235 342.431H102.379V343.381H105.235V342.431Z" fill="#D5F959"/>
<path d="M105.235 336.712H102.379V337.669H105.235V336.712Z" fill="#D5F959"/>
<path d="M106.191 332.906H103.328V333.856H106.191V332.906Z" fill="#D5F959"/>
<path d="M104.285 344.331H102.379V346.237H104.285V344.331Z" fill="#D5F959"/>
<path d="M104.285 338.619H102.379V340.525H104.285V338.619Z" fill="#D5F959"/>
<path d="M103.33 333.856H101.43V334.812H103.33V333.856Z" fill="#D5F959"/>
<path d="M102.38 347.194H101.43V348.144H102.38V347.194Z" fill="#D5F959"/>
<path d="M101.429 342.431H102.379V341.475H101.429V336.713H102.379V335.762H101.429V334.812H100.473V347.194H101.429V342.431Z" fill="#D5F959"/>
</g>
<path d="M149.349 55L145.193 43.7266H146.67L150.029 53.3125H150.06L153.42 43.7266H154.896L150.74 55H149.349ZM156.506 45.5C156.037 45.5 155.654 45.1172 155.654 44.6484C155.654 44.1719 156.037 43.7969 156.506 43.7969C156.982 43.7969 157.357 44.1719 157.357 44.6484C157.357 45.1172 156.982 45.5 156.506 45.5ZM155.826 55V46.875H157.185V55H155.826ZM161.92 55.1562C160.006 55.1562 158.849 54.1797 158.685 52.7266L158.678 52.6562H160.037L160.053 52.7344C160.217 53.5469 160.818 54.0234 161.928 54.0234C163.029 54.0234 163.685 53.5625 163.685 52.8281V52.8203C163.685 52.2344 163.381 51.9062 162.459 51.6797L161.17 51.3672C159.639 51 158.896 50.2891 158.896 49.1172V49.1094C158.896 47.7109 160.123 46.7188 161.881 46.7188C163.662 46.7188 164.795 47.7578 164.896 49.1172L164.904 49.2188H163.607L163.599 49.1641C163.49 48.375 162.889 47.8516 161.881 47.8516C160.896 47.8516 160.287 48.3281 160.287 49.0469V49.0547C160.287 49.6094 160.654 49.9922 161.553 50.2109L162.842 50.5234C164.482 50.9219 165.076 51.5703 165.076 52.7266V52.7344C165.076 54.1562 163.732 55.1562 161.92 55.1562ZM167.256 45.5C166.787 45.5 166.404 45.1172 166.404 44.6484C166.404 44.1719 166.787 43.7969 167.256 43.7969C167.732 43.7969 168.107 44.1719 168.107 44.6484C168.107 45.1172 167.732 45.5 167.256 45.5ZM166.576 55V46.875H167.935V55H166.576ZM173.154 55.1562C170.896 55.1562 169.389 53.5234 169.389 50.9375V50.9219C169.389 48.3359 170.904 46.7188 173.146 46.7188C175.389 46.7188 176.912 48.3281 176.912 50.9219V50.9375C176.912 53.5312 175.396 55.1562 173.154 55.1562ZM173.162 53.9531C174.592 53.9531 175.521 52.8438 175.521 50.9375V50.9219C175.521 49.0156 174.584 47.9219 173.146 47.9219C171.732 47.9219 170.779 49.0234 170.779 50.9219V50.9375C170.779 52.8516 171.724 53.9531 173.162 53.9531ZM178.287 55V46.875H179.646V48.0312H179.678C180.115 47.2734 180.943 46.7188 182.178 46.7188C183.959 46.7188 184.99 47.875 184.99 49.7266V55H183.631V49.9688C183.631 48.6484 183.014 47.9219 181.764 47.9219C180.482 47.9219 179.646 48.8359 179.646 50.2188V55H178.287Z" fill="#393739"/>
<path d="M146.092 264V252.727H147.459L153.662 261.625H153.701V252.727H155.092V264H153.725L147.522 255.102H147.483V264H146.092ZM159.209 264.156C157.592 264.156 156.506 263.18 156.506 261.703V261.688C156.506 260.305 157.584 259.438 159.451 259.328L161.78 259.195V258.516C161.78 257.523 161.131 256.922 159.998 256.922C158.951 256.922 158.295 257.422 158.139 258.148L158.123 258.219H156.811L156.819 258.133C156.936 256.797 158.1 255.719 160.014 255.719C161.936 255.719 163.139 256.758 163.139 258.383V264H161.78V262.68H161.748C161.272 263.57 160.295 264.156 159.209 264.156ZM157.897 261.703C157.897 262.484 158.537 262.977 159.514 262.977C160.795 262.977 161.78 262.094 161.78 260.914V260.25L159.608 260.383C158.522 260.445 157.897 260.93 157.897 261.688V261.703ZM167.155 264L164.162 255.875H165.592L167.834 262.555H167.865L170.115 255.875H171.53L168.545 264H167.155ZM173.365 254.5C172.897 254.5 172.514 254.117 172.514 253.648C172.514 253.172 172.897 252.797 173.365 252.797C173.842 252.797 174.217 253.172 174.217 253.648C174.217 254.117 173.842 254.5 173.365 254.5ZM172.686 264V255.875H174.045V264H172.686ZM179.334 266.891C177.326 266.891 176.061 265.945 175.795 264.742L175.78 264.672H177.147L177.178 264.742C177.436 265.328 178.209 265.688 179.319 265.688C180.748 265.688 181.561 264.898 181.561 263.641V262.602H181.53C181.045 263.5 180.108 264.078 178.944 264.078C176.897 264.078 175.498 262.43 175.498 259.891V259.883C175.498 257.359 176.912 255.719 178.975 255.719C180.123 255.719 181.03 256.344 181.53 257.25H181.561V255.875H182.92V263.773C182.92 265.656 181.537 266.891 179.334 266.891ZM179.24 262.875C180.623 262.875 181.561 261.695 181.561 259.891V259.883C181.561 258.094 180.615 256.922 179.24 256.922C177.795 256.922 176.889 258.078 176.889 259.883V259.891C176.889 261.734 177.795 262.875 179.24 262.875ZM187.053 264.156C185.436 264.156 184.35 263.18 184.35 261.703V261.688C184.35 260.305 185.428 259.438 187.295 259.328L189.623 259.195V258.516C189.623 257.523 188.975 256.922 187.842 256.922C186.795 256.922 186.139 257.422 185.983 258.148L185.967 258.219H184.655L184.662 258.133C184.78 256.797 185.944 255.719 187.858 255.719C189.78 255.719 190.983 256.758 190.983 258.383V264H189.623V262.68H189.592C189.115 263.57 188.139 264.156 187.053 264.156ZM185.74 261.703C185.74 262.484 186.381 262.977 187.358 262.977C188.639 262.977 189.623 262.094 189.623 260.914V260.25L187.451 260.383C186.365 260.445 185.74 260.93 185.74 261.688V261.703ZM195.35 264.156C193.858 264.156 193.123 263.484 193.123 261.93V257H191.936V255.875H193.123V253.68H194.53V255.875H196.076V257H194.53V261.922C194.53 262.789 194.912 263.031 195.639 263.031C195.803 263.031 195.959 263.008 196.076 263V264.102C195.905 264.125 195.615 264.156 195.35 264.156ZM198.303 254.5C197.834 254.5 197.451 254.117 197.451 253.648C197.451 253.172 197.834 252.797 198.303 252.797C198.78 252.797 199.155 253.172 199.155 253.648C199.155 254.117 198.78 254.5 198.303 254.5ZM197.623 264V255.875H198.983V264H197.623ZM204.201 264.156C201.944 264.156 200.436 262.523 200.436 259.938V259.922C200.436 257.336 201.951 255.719 204.194 255.719C206.436 255.719 207.959 257.328 207.959 259.922V259.938C207.959 262.531 206.444 264.156 204.201 264.156ZM204.209 262.953C205.639 262.953 206.569 261.844 206.569 259.938V259.922C206.569 258.016 205.631 256.922 204.194 256.922C202.78 256.922 201.826 258.023 201.826 259.922V259.938C201.826 261.852 202.772 262.953 204.209 262.953ZM209.334 264V255.875H210.694V257.031H210.725C211.162 256.273 211.99 255.719 213.225 255.719C215.006 255.719 216.037 256.875 216.037 258.727V264H214.678V258.969C214.678 257.648 214.061 256.922 212.811 256.922C211.53 256.922 210.694 257.836 210.694 259.219V264H209.334Z" fill="#393739"/>
<path d="M148.944 152V141.992H145.389V140.727H153.905V141.992H150.35V152H148.944ZM155.444 152.156C153.826 152.156 152.74 151.18 152.74 149.703V149.688C152.74 148.305 153.819 147.438 155.686 147.328L158.014 147.195V146.516C158.014 145.523 157.365 144.922 156.233 144.922C155.186 144.922 154.53 145.422 154.373 146.148L154.358 146.219H153.045L153.053 146.133C153.17 144.797 154.334 143.719 156.248 143.719C158.17 143.719 159.373 144.758 159.373 146.383V152H158.014V150.68H157.983C157.506 151.57 156.53 152.156 155.444 152.156ZM154.131 149.703C154.131 150.484 154.772 150.977 155.748 150.977C157.03 150.977 158.014 150.094 158.014 148.914V148.25L155.842 148.383C154.756 148.445 154.131 148.93 154.131 149.688V149.703ZM164.467 152.156C162.162 152.156 160.701 150.516 160.701 147.93V147.922C160.701 145.359 162.194 143.719 164.451 143.719C166.475 143.719 167.67 145.062 167.842 146.453L167.85 146.516H166.522L166.506 146.453C166.303 145.641 165.647 144.922 164.451 144.922C163.037 144.922 162.092 146.094 162.092 147.938V147.945C162.092 149.836 163.061 150.953 164.467 150.953C165.576 150.953 166.287 150.328 166.514 149.422L166.53 149.359H167.865L167.858 149.414C167.639 150.961 166.303 152.156 164.467 152.156ZM171.756 152.156C170.264 152.156 169.53 151.484 169.53 149.93V145H168.342V143.875H169.53V141.68H170.936V143.875H172.483V145H170.936V149.922C170.936 150.789 171.319 151.031 172.045 151.031C172.209 151.031 172.365 151.008 172.483 151V152.102C172.311 152.125 172.022 152.156 171.756 152.156ZM174.709 142.5C174.24 142.5 173.858 142.117 173.858 141.648C173.858 141.172 174.24 140.797 174.709 140.797C175.186 140.797 175.561 141.172 175.561 141.648C175.561 142.117 175.186 142.5 174.709 142.5ZM174.03 152V143.875H175.389V152H174.03ZM177.311 152V140.727H178.67V152H177.311ZM183.85 152.156C181.514 152.156 180.108 150.523 180.108 147.969V147.961C180.108 145.445 181.545 143.719 183.764 143.719C185.983 143.719 187.334 145.367 187.334 147.805V148.305H181.483C181.514 149.977 182.436 150.953 183.881 150.953C184.912 150.953 185.639 150.438 185.873 149.742L185.897 149.672H187.233L187.217 149.75C186.951 151.094 185.623 152.156 183.85 152.156ZM183.756 144.922C182.576 144.922 181.655 145.727 181.506 147.242H185.951C185.819 145.664 184.944 144.922 183.756 144.922Z" fill="#393739"/>
<path d="M146.092 346V334.727H147.498V344.734H152.936V346H146.092ZM156.647 346.156C155.03 346.156 153.944 345.18 153.944 343.703V343.688C153.944 342.305 155.022 341.438 156.889 341.328L159.217 341.195V340.516C159.217 339.523 158.569 338.922 157.436 338.922C156.389 338.922 155.733 339.422 155.576 340.148L155.561 340.219H154.248L154.256 340.133C154.373 338.797 155.537 337.719 157.451 337.719C159.373 337.719 160.576 338.758 160.576 340.383V346H159.217V344.68H159.186C158.709 345.57 157.733 346.156 156.647 346.156ZM155.334 343.703C155.334 344.484 155.975 344.977 156.951 344.977C158.233 344.977 159.217 344.094 159.217 342.914V342.25L157.045 342.383C155.959 342.445 155.334 342.93 155.334 343.688V343.703ZM162.303 346V337.875H163.662V339.031H163.694C164.131 338.273 164.959 337.719 166.194 337.719C167.975 337.719 169.006 338.875 169.006 340.727V346H167.647V340.969C167.647 339.648 167.03 338.922 165.78 338.922C164.498 338.922 163.662 339.836 163.662 341.219V346H162.303ZM174.178 348.891C172.17 348.891 170.905 347.945 170.639 346.742L170.623 346.672H171.99L172.022 346.742C172.28 347.328 173.053 347.688 174.162 347.688C175.592 347.688 176.405 346.898 176.405 345.641V344.602H176.373C175.889 345.5 174.951 346.078 173.787 346.078C171.74 346.078 170.342 344.43 170.342 341.891V341.883C170.342 339.359 171.756 337.719 173.819 337.719C174.967 337.719 175.873 338.344 176.373 339.25H176.405V337.875H177.764V345.773C177.764 347.656 176.381 348.891 174.178 348.891ZM174.084 344.875C175.467 344.875 176.405 343.695 176.405 341.891V341.883C176.405 340.094 175.459 338.922 174.084 338.922C172.639 338.922 171.733 340.078 171.733 341.883V341.891C171.733 343.734 172.639 344.875 174.084 344.875ZM182.295 346.156C180.514 346.156 179.483 345 179.483 343.148V337.875H180.842V342.906C180.842 344.227 181.459 344.953 182.709 344.953C183.99 344.953 184.826 344.039 184.826 342.656V337.875H186.186V346H184.826V344.844H184.795C184.358 345.602 183.53 346.156 182.295 346.156ZM190.334 346.156C188.717 346.156 187.631 345.18 187.631 343.703V343.688C187.631 342.305 188.709 341.438 190.576 341.328L192.905 341.195V340.516C192.905 339.523 192.256 338.922 191.123 338.922C190.076 338.922 189.42 339.422 189.264 340.148L189.248 340.219H187.936L187.944 340.133C188.061 338.797 189.225 337.719 191.139 337.719C193.061 337.719 194.264 338.758 194.264 340.383V346H192.905V344.68H192.873C192.397 345.57 191.42 346.156 190.334 346.156ZM189.022 343.703C189.022 344.484 189.662 344.977 190.639 344.977C191.92 344.977 192.905 344.094 192.905 342.914V342.25L190.733 342.383C189.647 342.445 189.022 342.93 189.022 343.688V343.703ZM199.428 348.891C197.42 348.891 196.155 347.945 195.889 346.742L195.873 346.672H197.24L197.272 346.742C197.53 347.328 198.303 347.688 199.412 347.688C200.842 347.688 201.655 346.898 201.655 345.641V344.602H201.623C201.139 345.5 200.201 346.078 199.037 346.078C196.99 346.078 195.592 344.43 195.592 341.891V341.883C195.592 339.359 197.006 337.719 199.069 337.719C200.217 337.719 201.123 338.344 201.623 339.25H201.655V337.875H203.014V345.773C203.014 347.656 201.631 348.891 199.428 348.891ZM199.334 344.875C200.717 344.875 201.655 343.695 201.655 341.891V341.883C201.655 340.094 200.709 338.922 199.334 338.922C197.889 338.922 196.983 340.078 196.983 341.883V341.891C196.983 343.734 197.889 344.875 199.334 344.875ZM208.115 346.156C205.78 346.156 204.373 344.523 204.373 341.969V341.961C204.373 339.445 205.811 337.719 208.03 337.719C210.248 337.719 211.6 339.367 211.6 341.805V342.305H205.748C205.78 343.977 206.701 344.953 208.147 344.953C209.178 344.953 209.905 344.438 210.139 343.742L210.162 343.672H211.498L211.483 343.75C211.217 345.094 209.889 346.156 208.115 346.156ZM208.022 338.922C206.842 338.922 205.92 339.727 205.772 341.242H210.217C210.084 339.664 209.209 338.922 208.022 338.922ZM215.569 346L219.764 334.727H221.155L225.342 346H223.865L222.725 342.773H218.186L217.045 346H215.569ZM220.444 336.414L218.615 341.578H222.303L220.475 336.414H220.444ZM229.639 346.156C227.334 346.156 225.873 344.516 225.873 341.93V341.922C225.873 339.359 227.365 337.719 229.623 337.719C231.647 337.719 232.842 339.062 233.014 340.453L233.022 340.516H231.694L231.678 340.453C231.475 339.641 230.819 338.922 229.623 338.922C228.209 338.922 227.264 340.094 227.264 341.938V341.945C227.264 343.836 228.233 344.953 229.639 344.953C230.748 344.953 231.459 344.328 231.686 343.422L231.701 343.359H233.037L233.03 343.414C232.811 344.961 231.475 346.156 229.639 346.156ZM236.928 346.156C235.436 346.156 234.701 345.484 234.701 343.93V339H233.514V337.875H234.701V335.68H236.108V337.875H237.655V339H236.108V343.922C236.108 344.789 236.49 345.031 237.217 345.031C237.381 345.031 237.537 345.008 237.655 345V346.102C237.483 346.125 237.194 346.156 236.928 346.156ZM239.881 336.5C239.412 336.5 239.03 336.117 239.03 335.648C239.03 335.172 239.412 334.797 239.881 334.797C240.358 334.797 240.733 335.172 240.733 335.648C240.733 336.117 240.358 336.5 239.881 336.5ZM239.201 346V337.875H240.561V346H239.201ZM245.78 346.156C243.522 346.156 242.014 344.523 242.014 341.938V341.922C242.014 339.336 243.53 337.719 245.772 337.719C248.014 337.719 249.537 339.328 249.537 341.922V341.938C249.537 344.531 248.022 346.156 245.78 346.156ZM245.787 344.953C247.217 344.953 248.147 343.844 248.147 341.938V341.922C248.147 340.016 247.209 338.922 245.772 338.922C244.358 338.922 243.405 340.023 243.405 341.922V341.938C243.405 343.852 244.35 344.953 245.787 344.953ZM250.912 346V337.875H252.272V339.031H252.303C252.74 338.273 253.569 337.719 254.803 337.719C256.584 337.719 257.615 338.875 257.615 340.727V346H256.256V340.969C256.256 339.648 255.639 338.922 254.389 338.922C253.108 338.922 252.272 339.836 252.272 341.219V346H250.912Z" fill="#393739"/>
<path d="M66.4195 359L32.5797 359L32.5797 352.57L48.5811 342.116L32.5797 331.662L32.5797 325.233L66.4195 325.233L66.4195 331.27L42.1516 331.27L58.1046 342.116L58.1046 342.313L42.2483 353.061L66.4195 353.061L66.4195 359Z" fill="#171315"/>
<path d="M66.9513 303.286C66.9513 312.219 61.8753 317.912 52.0618 317.912L32.5797 317.912L32.5797 311.875L51.8201 311.875C58.1046 311.875 61.4403 308.587 61.4403 303.188C61.4403 297.838 58.298 294.55 52.0618 294.55L32.5797 294.55L32.5797 288.513L51.7717 288.513C61.8753 288.513 66.9513 294.304 66.9513 303.286Z" fill="#171315"/>
<path d="M66.4195 281.208L32.5797 281.208L32.5797 275.171L61.0052 275.171L61.0052 257.109L66.4195 257.109L66.4195 281.208Z" fill="#171315"/>
<path d="M66.4195 248.249L38.0908 248.249L38.0908 259.145L32.5797 259.145L32.5797 231.267L38.0908 231.267L38.0908 242.163L66.4195 242.163L66.4195 248.249Z" fill="#171315"/>
<path d="M66.4195 225.503L32.5797 225.503L32.5797 219.466L66.4195 219.466L66.4195 225.503Z" fill="#171315"/>
<path d="M66.4195 211.251L32.5797 211.251L32.5797 204.822L48.5811 194.368L32.5797 183.914L32.5797 177.484L66.4195 177.484L66.4195 183.521L42.1516 183.521L58.1046 194.368L58.1046 194.564L42.2483 205.313L66.4195 205.313L66.4195 211.251Z" fill="#171315"/>
<path d="M66.9996 153.23C66.9996 163.783 59.1198 171.145 49.5963 171.145L49.4996 171.145C39.9761 171.145 31.9996 163.685 31.9996 153.132C31.9996 142.58 39.8795 135.218 49.4029 135.218L49.4996 135.218C59.0231 135.218 66.9996 142.678 66.9996 153.23ZM61.4886 153.132C61.4886 146.31 56.1709 141.549 49.5963 141.549L49.4996 141.549C42.925 141.549 37.4623 146.408 37.4623 153.23C37.4623 160.053 42.8284 164.813 49.4029 164.813L49.4996 164.813C56.0742 164.813 61.4886 159.954 61.4886 153.132Z" fill="#171315"/>
<path d="M66.4195 128.906L32.5797 128.906L32.5797 116.096C32.5797 105.298 39.8795 97.8381 49.4029 97.8381L49.4996 97.8381C59.0231 97.8381 66.4195 105.298 66.4195 116.096L66.4195 128.906ZM37.9941 116.096L37.9941 122.869L61.0052 122.869L61.0052 116.096C61.0052 108.881 56.2192 104.169 49.5963 104.169L49.4996 104.169C42.8767 104.169 37.9941 108.881 37.9941 116.096Z" fill="#171315"/>
<path d="M66.4195 96.8369L32.338 81.7202L32.338 76.125L66.4195 61.0083L66.4195 67.3888L58.2496 70.8735L58.2496 87.119L66.4195 90.6528L66.4195 96.8369ZM52.9803 84.9104L52.9803 73.0821L39.4444 79.0208L52.9803 84.9104Z" fill="#171315"/>
<path d="M66.4195 56.0984L32.5797 56.0984L32.5797 50.0615L61.0052 50.0615L61.0052 32L66.4195 32L66.4195 56.0984Z" fill="#171315"/>
<defs>
<clipPath id="clip0_2002_291">
<rect width="24" height="24" fill="white" transform="translate(97.998 38)"/>
</clipPath>
<clipPath id="clip1_2002_291">
<rect width="20" height="20" fill="white" transform="translate(99.9983 234)"/>
</clipPath>
<clipPath id="clip2_2002_291">
<rect width="20" height="20" fill="white" transform="translate(99.9983 234)"/>
</clipPath>
<clipPath id="clip3_2002_291">
<rect width="20" height="20" fill="white" transform="translate(99.9983 331)"/>
</clipPath>
</defs>
</svg>
