<svg width="408" height="182" viewBox="0 0 408 182" fill="none" xmlns="http://www.w3.org/2000/svg">
<path d="M408 -55.9033C408 -32.6895 389.734 -13.8709 367.201 -13.8709C344.668 -13.8709 326.402 -32.6895 326.402 -55.9033C326.402 -79.1171 344.668 -97.9356 367.201 -97.9356C389.734 -97.9356 408 -79.1171 408 -55.9033Z" fill="black"/>
<path d="M1.24837e-05 55.9033C5.58914e-06 32.6895 18.2664 13.8709 40.7991 13.8709C63.3318 13.8709 81.5982 32.6895 81.5982 55.9033C81.5982 79.1171 63.3318 97.9355 40.7991 97.9355C18.2664 97.9355 1.93782e-05 79.1171 1.24837e-05 55.9033Z" fill="black"/>
<path d="M122.397 -182C144.929 -182 163.197 -163.18 163.197 -139.966C163.196 -116.753 144.929 -97.938 122.397 -97.938C120.33 -97.9381 118.3 -98.0967 116.316 -98.4027C106.115 -99.9762 94.6595 -99.5076 87.3657 -91.9933C80.0719 -84.4791 79.6172 -72.6779 81.1446 -62.1684C81.4416 -60.1248 81.5956 -58.033 81.5956 -55.9038C81.5956 -32.6905 63.333 -13.8703 40.8009 -13.8696C18.2682 -13.8696 4.92468e-06 -32.69 0 -55.9038C0.000280944 -79.1174 18.2684 -97.938 40.8009 -97.938C42.8653 -97.9379 44.8936 -97.7793 46.8752 -97.4736C57.0769 -95.8995 68.5314 -96.368 75.8255 -103.883C83.1196 -111.397 83.5762 -123.199 82.0515 -133.71C81.7554 -135.751 81.6019 -137.84 81.6018 -139.966C81.6018 -163.179 99.8647 -181.999 122.397 -182Z" fill="black"/>
<path d="M285.603 182C263.071 182 244.803 163.18 244.803 139.966C244.804 116.753 263.071 97.938 285.603 97.938C287.67 97.938 289.7 98.0967 291.684 98.4027C301.885 99.9762 313.34 99.5076 320.634 91.9933C327.928 84.4791 328.383 72.6779 326.855 62.1684C326.558 60.1248 326.404 58.0329 326.404 55.9038C326.404 32.6904 344.667 13.8703 367.199 13.8696C389.732 13.8696 408 32.69 408 55.9038C408 79.1173 389.732 97.938 367.199 97.938C365.135 97.9379 363.106 97.7793 361.125 97.4735C350.923 95.8995 339.469 96.368 332.174 103.883C324.88 111.397 324.424 123.199 325.949 133.71C326.245 135.751 326.398 137.84 326.398 139.966C326.398 163.179 308.135 181.999 285.603 182Z" fill="black"/>
<path d="M285.6 -182C308.132 -181.999 326.401 -163.179 326.401 -139.966C326.4 -116.753 308.132 -97.9386 285.6 -97.938C283.532 -97.938 281.498 -98.0951 279.513 -98.4014C269.312 -99.9748 257.854 -99.5043 250.56 -91.9902C243.269 -84.476 242.819 -72.6764 244.349 -62.169C244.647 -60.1254 244.799 -58.0331 244.799 -55.9038C244.799 -40.7845 237.049 -27.5322 225.419 -20.1279C218.345 -15.6241 212.205 -8.57361 212.205 -0.00634766C212.205 8.56093 218.345 15.6115 225.418 20.1174C237.046 27.5252 244.793 40.7845 244.793 55.9038C244.792 79.1164 226.53 97.937 203.998 97.938C201.935 97.938 199.904 97.7797 197.923 97.4746C187.721 95.9037 176.264 96.3715 168.971 103.886C161.677 111.4 161.223 123.203 162.748 133.713C163.043 135.752 163.197 137.842 163.197 139.966C163.197 163.179 144.929 182 122.397 182C99.8647 181.999 81.596 163.179 81.5956 139.966C81.5966 116.753 99.865 97.9387 122.397 97.938C124.467 97.938 126.503 98.0945 128.49 98.4014C138.688 99.9757 150.138 99.5074 157.43 91.9966C164.725 84.4834 165.177 72.6842 163.647 62.1753C163.349 60.1297 163.197 58.0351 163.197 55.9038C163.197 40.7401 170.992 27.4483 182.679 20.0537C189.752 15.5782 195.89 8.54453 195.89 -0.00718689C195.89 -8.55812 189.753 -15.5912 182.68 -20.0658C170.996 -27.4574 163.204 -40.7415 163.204 -55.9038C163.204 -79.1167 181.467 -97.9369 203.998 -97.938C206.065 -97.938 208.096 -97.7803 210.08 -97.4746C220.279 -95.9025 231.734 -96.373 239.026 -103.886C246.318 -111.398 246.775 -123.199 245.249 -133.707C244.953 -135.749 244.799 -137.839 244.799 -139.966C244.799 -163.18 263.067 -182 285.6 -182Z" fill="black"/>
</svg>
