<svg width="167" height="25" viewBox="0 0 167 25" fill="none" xmlns="http://www.w3.org/2000/svg">
<path d="M164.998 21.9928C165.232 22.3604 165.323 22.6947 165.273 22.9955C165.223 23.2963 165.089 23.5469 164.872 23.7474C164.655 23.9647 164.388 24.0984 164.07 24.1485C163.753 24.2154 163.435 24.1819 163.118 24.0482C162.8 23.9313 162.533 23.6973 162.316 23.3464L160.586 20.564C160.352 20.1797 160.034 19.8872 159.633 19.6867C159.249 19.5029 158.773 19.411 158.205 19.411L160.686 18.4334C161.472 18.4334 162.098 18.5754 162.566 18.8595C163.034 19.1269 163.485 19.6031 163.92 20.2883L164.998 21.9928ZM158.23 19.411C156.525 19.411 155.03 19.035 153.743 18.283C152.473 17.531 151.487 16.4782 150.785 15.1246C150.083 13.7543 149.732 12.15 149.732 10.3118C149.732 8.92483 149.933 7.67986 150.334 6.57694C150.735 5.45731 151.303 4.50478 152.038 3.71937C152.79 2.91724 153.684 2.30729 154.72 1.88952C155.773 1.45504 156.943 1.23779 158.23 1.23779C159.951 1.23779 161.447 1.61379 162.717 2.36578C163.987 3.10106 164.973 4.1455 165.674 5.49909C166.376 6.85267 166.727 8.44857 166.727 10.2868C166.727 11.6738 166.527 12.9271 166.126 14.0467C165.725 15.1664 165.148 16.1273 164.396 16.9294C163.661 17.7315 162.767 18.3498 161.714 18.7843C160.678 19.2021 159.516 19.411 158.23 19.411ZM158.23 16.6536C159.316 16.6536 160.235 16.403 160.987 15.9017C161.756 15.4003 162.341 14.6734 162.742 13.7209C163.159 12.7683 163.368 11.632 163.368 10.3118C163.368 8.30653 162.917 6.75241 162.015 5.64948C161.129 4.54656 159.867 3.9951 158.23 3.9951C157.16 3.9951 156.241 4.24576 155.472 4.74709C154.704 5.23171 154.111 5.95028 153.693 6.90281C153.292 7.83862 153.091 8.97496 153.091 10.3118C153.091 12.3004 153.542 13.8546 154.445 14.9742C155.347 16.0938 156.609 16.6536 158.23 16.6536Z" fill="white"/>
<path d="M142.332 19.3608C141.814 19.3608 141.413 19.2188 141.129 18.9347C140.862 18.6339 140.728 18.2245 140.728 17.7064V2.94231C140.728 2.40756 140.862 1.99814 141.129 1.71405C141.413 1.42997 141.814 1.28793 142.332 1.28793C142.85 1.28793 143.243 1.42997 143.51 1.71405C143.794 1.99814 143.936 2.40756 143.936 2.94231V17.7064C143.936 18.2245 143.803 18.6339 143.535 18.9347C143.268 19.2188 142.867 19.3608 142.332 19.3608Z" fill="white"/>
<path d="M120.975 19.3608C120.49 19.3608 120.114 19.2271 119.847 18.9598C119.596 18.6924 119.471 18.308 119.471 17.8067V2.89218C119.471 2.37414 119.596 1.98143 119.847 1.71405C120.114 1.42997 120.457 1.28793 120.874 1.28793C121.259 1.28793 121.543 1.36312 121.727 1.51352C121.927 1.64721 122.161 1.88116 122.428 2.21538L132.029 14.6734H131.377V2.81698C131.377 2.33236 131.502 1.95636 131.753 1.68899C132.02 1.42161 132.396 1.28793 132.881 1.28793C133.366 1.28793 133.733 1.42161 133.984 1.68899C134.235 1.95636 134.36 2.33236 134.36 2.81698V17.8568C134.36 18.3247 134.243 18.6924 134.009 18.9598C133.775 19.2271 133.458 19.3608 133.056 19.3608C132.672 19.3608 132.363 19.2856 132.129 19.1352C131.912 18.9848 131.669 18.7425 131.402 18.4083L121.827 5.95028H122.453V17.8067C122.453 18.308 122.328 18.6924 122.077 18.9598C121.827 19.2271 121.459 19.3608 120.975 19.3608Z" fill="white"/>
<path d="M105.204 19.411C103.5 19.411 102.004 19.035 100.717 18.283C99.4472 17.531 98.4613 16.4782 97.7594 15.1246C97.0576 13.7543 96.7066 12.15 96.7066 10.3118C96.7066 8.92483 96.9072 7.67986 97.3082 6.57694C97.7093 5.45731 98.2774 4.50478 99.0127 3.71937C99.7647 2.91724 100.659 2.30729 101.695 1.88952C102.748 1.45504 103.917 1.23779 105.204 1.23779C106.925 1.23779 108.421 1.61379 109.691 2.36578C110.961 3.10106 111.947 4.1455 112.649 5.49909C113.351 6.85267 113.701 8.44857 113.701 10.2868C113.701 11.6738 113.501 12.9271 113.1 14.0467C112.699 15.1664 112.122 16.1273 111.37 16.9294C110.635 17.7315 109.741 18.3498 108.688 18.7843C107.652 19.2021 106.491 19.411 105.204 19.411ZM105.204 16.6536C106.29 16.6536 107.209 16.403 107.961 15.9017C108.73 15.4003 109.315 14.6734 109.716 13.7209C110.134 12.7683 110.343 11.632 110.343 10.3118C110.343 8.30653 109.891 6.75241 108.989 5.64948C108.103 4.54656 106.842 3.9951 105.204 3.9951C104.135 3.9951 103.215 4.24576 102.447 4.74709C101.678 5.23171 101.085 5.95028 100.667 6.90281C100.266 7.83862 100.065 8.97496 100.065 10.3118C100.065 12.3004 100.517 13.8546 101.419 14.9742C102.321 16.0938 103.583 16.6536 105.204 16.6536Z" fill="white"/>
<path d="M86.1507 19.3608C85.6326 19.3608 85.2316 19.2188 84.9475 18.9347C84.6801 18.6339 84.5464 18.2245 84.5464 17.7064V4.17056H79.6585C79.224 4.17056 78.8815 4.05359 78.6308 3.81963C78.3969 3.56897 78.2799 3.23475 78.2799 2.81698C78.2799 2.38249 78.3969 2.05663 78.6308 1.83939C78.8815 1.60543 79.224 1.48846 79.6585 1.48846H92.6428C93.0773 1.48846 93.4115 1.60543 93.6454 1.83939C93.8961 2.05663 94.0214 2.38249 94.0214 2.81698C94.0214 3.23475 93.8961 3.56897 93.6454 3.81963C93.4115 4.05359 93.0773 4.17056 92.6428 4.17056H87.7549V17.7064C87.7549 18.2245 87.6212 18.6339 87.3538 18.9347C87.0864 19.2188 86.6854 19.3608 86.1507 19.3608Z" fill="white"/>
<path d="M67.0957 19.411C65.3912 19.411 63.8956 19.035 62.6088 18.283C61.3388 17.531 60.3529 16.4782 59.651 15.1246C58.9492 13.7543 58.5982 12.15 58.5982 10.3118C58.5982 8.92483 58.7988 7.67986 59.1998 6.57694C59.6009 5.45731 60.1691 4.50478 60.9043 3.71937C61.6563 2.91724 62.5503 2.30729 63.5864 1.88952C64.6392 1.45504 65.8089 1.23779 67.0957 1.23779C68.8169 1.23779 70.3125 1.61379 71.5825 2.36578C72.8525 3.10106 73.8385 4.1455 74.5403 5.49909C75.2422 6.85267 75.5931 8.44857 75.5931 10.2868C75.5931 11.6738 75.3926 12.9271 74.9915 14.0467C74.5905 15.1664 74.0139 16.1273 73.2619 16.9294C72.5267 17.7315 71.6326 18.3498 70.5799 18.7843C69.5438 19.2021 68.3824 19.411 67.0957 19.411ZM67.0957 16.6536C68.1819 16.6536 69.101 16.403 69.8529 15.9017C70.6216 15.4003 71.2065 14.6734 71.6076 13.7209C72.0253 12.7683 72.2342 11.632 72.2342 10.3118C72.2342 8.30653 71.783 6.75241 70.8807 5.64948C69.995 4.54656 68.7333 3.9951 67.0957 3.9951C66.0262 3.9951 65.1071 4.24576 64.3384 4.74709C63.5697 5.23171 62.9765 5.95028 62.5587 6.90281C62.1576 7.83862 61.9571 8.97496 61.9571 10.3118C61.9571 12.3004 62.4083 13.8546 63.3107 14.9742C64.2131 16.0938 65.4747 16.6536 67.0957 16.6536Z" fill="white"/>
<path d="M36.4106 19.3608C35.9427 19.3608 35.5834 19.2271 35.3327 18.9598C35.0821 18.6924 34.9568 18.3247 34.9568 17.8568V2.79191C34.9568 2.30729 35.0904 1.93965 35.3578 1.68899C35.6252 1.42161 35.9928 1.28793 36.4607 1.28793C36.8785 1.28793 37.2044 1.37148 37.4383 1.53859C37.689 1.68899 37.9146 1.95636 38.1151 2.34072L44.3064 13.7961H43.5043L49.6957 2.34072C49.8962 1.95636 50.1134 1.68899 50.3474 1.53859C50.5813 1.37148 50.9072 1.28793 51.325 1.28793C51.7929 1.28793 52.1521 1.42161 52.4028 1.68899C52.6535 1.93965 52.7788 2.30729 52.7788 2.79191V17.8568C52.7788 18.3247 52.6535 18.6924 52.4028 18.9598C52.1688 19.2271 51.8096 19.3608 51.325 19.3608C50.8571 19.3608 50.4978 19.2271 50.2471 18.9598C49.9964 18.6924 49.8711 18.3247 49.8711 17.8568V6.25108H50.4226L45.1587 15.8515C44.9916 16.1356 44.8161 16.3445 44.6323 16.4782C44.4485 16.6119 44.1978 16.6787 43.8803 16.6787C43.5628 16.6787 43.3038 16.6119 43.1033 16.4782C42.9027 16.3278 42.7273 16.1189 42.5769 15.8515L37.2628 6.22601H37.8644V17.8568C37.8644 18.3247 37.7391 18.6924 37.4884 18.9598C37.2545 19.2271 36.8952 19.3608 36.4106 19.3608Z" fill="white"/>
<path d="M24.1263 7.12893C24.1263 8.40781 23.0896 9.44454 21.8107 9.44454C20.5318 9.44454 19.4951 8.40781 19.4951 7.12893C19.4951 5.85006 20.5318 4.81333 21.8107 4.81333C23.0896 4.81333 24.1263 5.85006 24.1263 7.12893Z" fill="white"/>
<path d="M0.969971 13.2885C0.969971 12.0096 2.00669 10.9729 3.28555 10.9729C4.56441 10.9729 5.60113 12.0096 5.60113 13.2885C5.60113 14.5673 4.56441 15.6041 3.28555 15.6041C2.00669 15.6041 0.969972 14.5673 0.969971 13.2885Z" fill="white"/>
<path d="M7.91667 0.182129C9.19552 0.182129 10.2323 1.21896 10.2323 2.49784C10.2323 3.77666 9.19549 4.8132 7.91667 4.8132C7.79938 4.81319 7.68415 4.80445 7.57157 4.78759C6.99258 4.70091 6.34243 4.72672 5.92847 5.1407C5.51451 5.55466 5.4887 6.2048 5.57539 6.78378C5.59224 6.89637 5.60098 7.01161 5.60098 7.1289C5.60098 8.40775 4.56448 9.44457 3.28565 9.44461C2.00679 9.44461 0.969971 8.40778 0.969971 7.1289C0.969987 5.85005 2.0068 4.8132 3.28565 4.8132C3.40282 4.8132 3.51794 4.82194 3.6304 4.83878C4.20941 4.9255 4.85951 4.89969 5.2735 4.4857C5.68748 4.07171 5.71339 3.42154 5.62686 2.8425C5.61005 2.73006 5.60134 2.61497 5.60133 2.49784C5.60133 1.219 6.63786 0.182186 7.91667 0.182129Z" fill="white"/>
<path d="M17.1796 20.2353C15.9007 20.2353 14.8639 19.1984 14.8639 17.9196C14.864 16.6408 15.9008 15.6042 17.1796 15.6042C17.2969 15.6042 17.4121 15.613 17.5247 15.6298C18.1037 15.7165 18.7538 15.6907 19.1678 15.2767C19.5817 14.8627 19.6076 14.2126 19.5209 13.6336C19.504 13.521 19.4953 13.4058 19.4953 13.2885C19.4953 12.0097 20.5318 10.9728 21.8106 10.9728C23.0895 10.9728 24.1263 12.0096 24.1263 13.2885C24.1263 14.5674 23.0894 15.6042 21.8106 15.6042C21.6934 15.6042 21.5783 15.5955 21.4658 15.5786C20.8868 15.4919 20.2367 15.5177 19.8228 15.9317C19.4088 16.3457 19.3829 16.9959 19.4694 17.5749C19.4862 17.6874 19.4949 17.8024 19.4949 17.9196C19.4949 19.1984 18.4584 20.2352 17.1796 20.2353Z" fill="white"/>
<path d="M17.1794 0.182129C18.4582 0.182163 19.4951 1.21899 19.4951 2.49784C19.495 3.77664 18.4582 4.81316 17.1794 4.8132C17.062 4.8132 16.9466 4.80454 16.8339 4.78767C16.2549 4.70098 15.6046 4.72691 15.1907 5.14086C14.7769 5.55483 14.7513 6.20488 14.8382 6.78375C14.8551 6.89634 14.8637 7.0116 14.8637 7.1289C14.8637 7.96184 14.4239 8.69193 13.7638 9.09984C13.3623 9.34796 13.0138 9.73638 13.0138 10.2084C13.0138 10.6803 13.3623 11.0688 13.7637 11.317C14.4237 11.7251 14.8634 12.4556 14.8634 13.2885C14.8633 14.5673 13.8268 15.6042 12.548 15.6042C12.4309 15.6042 12.3157 15.5955 12.2032 15.5787C11.6242 15.4921 10.974 15.5179 10.56 15.9319C10.1461 16.3459 10.1203 16.9961 10.2068 17.5751C10.2236 17.6875 10.2323 17.8026 10.2323 17.9196C10.2323 19.1984 9.19551 20.2353 7.91667 20.2353C6.63786 20.2352 5.60101 19.1984 5.60098 17.9196C5.60104 16.6408 6.63788 15.6043 7.91667 15.6042C8.03417 15.6042 8.14973 15.6128 8.26251 15.6297C8.8413 15.7165 9.49116 15.6907 9.90503 15.2769C10.319 14.863 10.3447 14.213 10.2579 13.634C10.241 13.5213 10.2324 13.4059 10.2323 13.2885C10.2323 12.4531 10.6747 11.7209 11.338 11.3135C11.7395 11.0669 12.0878 10.6794 12.0878 10.2083C12.0878 9.73723 11.7395 9.34977 11.3381 9.10326C10.675 8.69605 10.2327 7.96421 10.2327 7.1289C10.2327 5.85008 11.2692 4.81325 12.548 4.8132C12.6653 4.8132 12.7806 4.82188 12.8932 4.83872C13.4721 4.92533 14.1222 4.89941 14.536 4.48553C14.9499 4.07164 14.9758 3.42152 14.8892 2.84264C14.8724 2.73015 14.8637 2.61501 14.8637 2.49784C14.8637 1.21897 15.9005 0.182131 17.1794 0.182129Z" fill="white"/>
</svg>
