<svg width="154" height="32" viewBox="0 0 154 32" fill="none" xmlns="http://www.w3.org/2000/svg">
<path d="M0.164062 4.05773C0.164062 2.3346 1.56093 0.937729 3.28406 0.937729H150.764C152.487 0.937729 153.884 2.3346 153.884 4.05773V28.2977C153.884 30.0209 152.487 31.4177 150.764 31.4177H3.28405C1.56092 31.4177 0.164062 30.0209 0.164062 28.2977V4.05773Z" fill="white"/>
<path d="M142.851 25.8749C143.043 26.1771 143.119 26.4517 143.078 26.6989C143.036 26.9461 142.927 27.1521 142.748 27.3169C142.569 27.4954 142.35 27.6053 142.089 27.6465C141.828 27.7014 141.567 27.674 141.306 27.5641C141.045 27.468 140.825 27.2757 140.647 26.9873L139.226 24.7007C139.033 24.3849 138.773 24.1445 138.443 23.9797C138.127 23.8287 137.736 23.7531 137.269 23.7531L139.308 22.9497C139.953 22.9497 140.468 23.0665 140.853 23.2999C141.237 23.5197 141.608 23.9111 141.965 24.4741L142.851 25.8749ZM137.289 23.7531C135.889 23.7531 134.66 23.4441 133.602 22.8261C132.559 22.2081 131.749 21.3429 131.172 20.2305C130.595 19.1044 130.307 17.786 130.307 16.2754C130.307 15.1355 130.471 14.1124 130.801 13.206C131.131 12.2858 131.597 11.503 132.202 10.8576C132.82 10.1984 133.554 9.69711 134.406 9.35378C135.271 8.99672 136.232 8.81818 137.289 8.81818C138.704 8.81818 139.933 9.12718 140.977 9.74518C142.02 10.3494 142.83 11.2078 143.407 12.3202C143.984 13.4326 144.272 14.7441 144.272 16.2548C144.272 17.3946 144.107 18.4246 143.778 19.3447C143.448 20.2649 142.975 21.0545 142.357 21.7137C141.752 22.3729 141.018 22.8811 140.153 23.2381C139.301 23.5815 138.347 23.7531 137.289 23.7531ZM137.289 21.4871C138.182 21.4871 138.937 21.2811 139.555 20.8691C140.187 20.4571 140.668 19.8597 140.997 19.0769C141.34 18.2941 141.512 17.3603 141.512 16.2754C141.512 14.6274 141.141 13.3502 140.4 12.4438C139.672 11.5374 138.635 11.0842 137.289 11.0842C136.411 11.0842 135.655 11.2902 135.024 11.7022C134.392 12.1004 133.904 12.691 133.561 13.4738C133.232 14.2428 133.067 15.1767 133.067 16.2754C133.067 17.9096 133.438 19.1868 134.179 20.1069C134.921 21.0271 135.957 21.4871 137.289 21.4871Z" fill="black"/>
<path d="M124.225 23.7119C123.8 23.7119 123.47 23.5952 123.237 23.3617C123.017 23.1145 122.907 22.7781 122.907 22.3523V10.219C122.907 9.77951 123.017 9.44305 123.237 9.20958C123.47 8.97612 123.8 8.85938 124.225 8.85938C124.651 8.85938 124.974 8.97612 125.194 9.20958C125.427 9.44305 125.544 9.77951 125.544 10.219V22.3523C125.544 22.7781 125.434 23.1145 125.214 23.3617C124.994 23.5952 124.665 23.7119 124.225 23.7119Z" fill="black"/>
<path d="M106.675 23.7119C106.277 23.7119 105.968 23.6021 105.748 23.3823C105.542 23.1626 105.439 22.8467 105.439 22.4347V10.1778C105.439 9.75205 105.542 9.42931 105.748 9.20958C105.968 8.97612 106.249 8.85938 106.592 8.85938C106.908 8.85938 107.142 8.92118 107.293 9.04478C107.458 9.15465 107.65 9.34691 107.869 9.62158L115.759 19.8597H115.223V10.116C115.223 9.71771 115.326 9.40871 115.532 9.18898C115.752 8.96925 116.061 8.85938 116.459 8.85938C116.857 8.85938 117.159 8.96925 117.365 9.18898C117.571 9.40871 117.674 9.71771 117.674 10.116V22.4759C117.674 22.8605 117.578 23.1626 117.386 23.3823C117.194 23.6021 116.933 23.7119 116.603 23.7119C116.287 23.7119 116.033 23.6501 115.841 23.5265C115.662 23.4029 115.463 23.2038 115.244 22.9291L107.375 12.691H107.89V22.4347C107.89 22.8467 107.787 23.1626 107.581 23.3823C107.375 23.6021 107.073 23.7119 106.675 23.7119Z" fill="black"/>
<path d="M93.7152 23.7531C92.3145 23.7531 91.0855 23.4441 90.0281 22.8261C88.9845 22.2081 88.1743 21.3429 87.5975 20.2305C87.0208 19.1044 86.7324 17.786 86.7324 16.2754C86.7324 15.1355 86.8972 14.1124 87.2268 13.206C87.5563 12.2858 88.0232 11.503 88.6275 10.8576C89.2454 10.1984 89.9801 9.69711 90.8315 9.35378C91.6966 8.99672 92.6578 8.81818 93.7152 8.81818C95.1296 8.81818 96.3587 9.12718 97.4023 9.74518C98.446 10.3494 99.2562 11.2078 99.8329 12.3202C100.41 13.4326 100.698 14.7441 100.698 16.2548C100.698 17.3946 100.533 18.4246 100.204 19.3447C99.8741 20.2649 99.4004 21.0545 98.7824 21.7137C98.1782 22.3729 97.4435 22.8811 96.5784 23.2381C95.727 23.5815 94.7726 23.7531 93.7152 23.7531ZM93.7152 21.4871C94.6078 21.4871 95.3631 21.2811 95.981 20.8691C96.6127 20.4571 97.0933 19.8597 97.4229 19.0769C97.7662 18.2941 97.9379 17.3603 97.9379 16.2754C97.9379 14.6274 97.5671 13.3502 96.8256 12.4438C96.0978 11.5374 95.061 11.0842 93.7152 11.0842C92.8364 11.0842 92.0811 11.2902 91.4494 11.7022C90.8177 12.1004 90.3302 12.691 89.9869 13.4738C89.6574 14.2428 89.4926 15.1767 89.4926 16.2754C89.4926 17.9096 89.8633 19.1868 90.6049 20.1069C91.3464 21.0271 92.3832 21.4871 93.7152 21.4871Z" fill="black"/>
<path d="M78.058 23.7119C77.6323 23.7119 77.3027 23.5952 77.0692 23.3617C76.8495 23.1145 76.7397 22.7781 76.7397 22.3523V11.2284H72.723C72.366 11.2284 72.0845 11.1322 71.8785 10.94C71.6862 10.734 71.5901 10.4593 71.5901 10.116C71.5901 9.75891 71.6862 9.49111 71.8785 9.31258C72.0845 9.12032 72.366 9.02418 72.723 9.02418H83.3929C83.75 9.02418 84.0246 9.12032 84.2169 9.31258C84.4228 9.49111 84.5258 9.75891 84.5258 10.116C84.5258 10.4593 84.4228 10.734 84.2169 10.94C84.0246 11.1322 83.75 11.2284 83.3929 11.2284H79.3762V22.3523C79.3762 22.7781 79.2664 23.1145 79.0467 23.3617C78.827 23.5952 78.4974 23.7119 78.058 23.7119Z" fill="black"/>
<path d="M62.3994 23.7531C60.9987 23.7531 59.7697 23.4441 58.7123 22.8261C57.6687 22.2081 56.8585 21.3429 56.2817 20.2305C55.705 19.1044 55.4166 17.786 55.4166 16.2754C55.4166 15.1355 55.5814 14.1124 55.9109 13.206C56.2405 12.2858 56.7074 11.503 57.3116 10.8576C57.9296 10.1984 58.6642 9.69711 59.5156 9.35378C60.3808 8.99672 61.342 8.81818 62.3994 8.81818C63.8138 8.81818 65.0429 9.12718 66.0865 9.74518C67.1301 10.3494 67.9403 11.2078 68.5171 12.3202C69.0938 13.4326 69.3822 14.7441 69.3822 16.2548C69.3822 17.3946 69.2174 18.4246 68.8879 19.3447C68.5583 20.2649 68.0845 21.0545 67.4666 21.7137C66.8624 22.3729 66.1277 22.8811 65.2626 23.2381C64.4112 23.5815 63.4568 23.7531 62.3994 23.7531ZM62.3994 21.4871C63.292 21.4871 64.0473 21.2811 64.6652 20.8691C65.2969 20.4571 65.7775 19.8597 66.1071 19.0769C66.4504 18.2941 66.6221 17.3603 66.6221 16.2754C66.6221 14.6274 66.2513 13.3502 65.5097 12.4438C64.7819 11.5374 63.7452 11.0842 62.3994 11.0842C61.5205 11.0842 60.7653 11.2902 60.1336 11.7022C59.5019 12.1004 59.0144 12.691 58.6711 13.4738C58.3415 14.2428 58.1768 15.1767 58.1768 16.2754C58.1768 17.9096 58.5475 19.1868 59.2891 20.1069C60.0306 21.0271 61.0674 21.4871 62.3994 21.4871Z" fill="black"/>
<path d="M37.1837 23.7119C36.7992 23.7119 36.504 23.6021 36.298 23.3823C36.092 23.1626 35.989 22.8605 35.989 22.4759V10.0954C35.989 9.69711 36.0989 9.39498 36.3186 9.18898C36.5383 8.96925 36.8404 8.85938 37.2249 8.85938C37.5682 8.85938 37.836 8.92805 38.0283 9.06538C38.2342 9.18898 38.4196 9.40872 38.5844 9.72458L43.6722 19.1387H43.013L48.1008 9.72458C48.2656 9.40872 48.4441 9.18898 48.6364 9.06538C48.8286 8.92805 49.0964 8.85938 49.4397 8.85938C49.8242 8.85938 50.1195 8.96925 50.3254 9.18898C50.5314 9.39498 50.6344 9.69711 50.6344 10.0954V22.4759C50.6344 22.8605 50.5314 23.1626 50.3254 23.3823C50.1332 23.6021 49.8379 23.7119 49.4397 23.7119C49.0552 23.7119 48.76 23.6021 48.554 23.3823C48.348 23.1626 48.245 22.8605 48.245 22.4759V12.9382H48.6982L44.3725 20.8279C44.2352 21.0614 44.091 21.2331 43.94 21.3429C43.7889 21.4528 43.5829 21.5077 43.322 21.5077C43.0611 21.5077 42.8483 21.4528 42.6835 21.3429C42.5187 21.2193 42.3745 21.0477 42.2509 20.8279L37.8841 12.9176H38.3784V22.4759C38.3784 22.8605 38.2754 23.1626 38.0695 23.3823C37.8772 23.6021 37.582 23.7119 37.1837 23.7119Z" fill="black"/>
<g style="mix-blend-mode:hard-light">
<path d="M26.2722 13.7888C26.2722 14.8092 25.4216 15.6364 24.3723 15.6364C23.323 15.6364 22.4723 14.8092 22.4723 13.7888C22.4723 12.7684 23.323 11.9412 24.3723 11.9412C25.4216 11.9412 26.2722 12.7684 26.2722 13.7888Z" fill="black"/>
<path d="M7.27225 18.7034C7.27225 17.683 8.12289 16.8558 9.1722 16.8558C10.2215 16.8558 11.0722 17.683 11.0722 18.7034C11.0722 19.7238 10.2215 20.5509 9.17221 20.5509C8.12289 20.5509 7.27225 19.7238 7.27225 18.7034Z" fill="black"/>
<path d="M12.9721 8.24608C14.0214 8.24608 14.8721 9.07335 14.8721 10.0937C14.8721 11.1141 14.0214 11.9411 12.9721 11.9411C12.8759 11.9411 12.7813 11.9341 12.6889 11.9207C12.2139 11.8515 11.6804 11.8721 11.3407 12.2024C11.0011 12.5327 10.9799 13.0514 11.051 13.5134C11.0649 13.6032 11.072 13.6952 11.072 13.7888C11.072 14.8091 10.2216 15.6364 9.17229 15.6364C8.12297 15.6364 7.27225 14.8092 7.27225 13.7888C7.27226 12.7684 8.12298 11.9411 9.17229 11.9411C9.26842 11.9411 9.36288 11.9481 9.45516 11.9615C9.93024 12.0307 10.4637 12.0101 10.8033 11.6798C11.143 11.3495 11.1643 10.8307 11.0933 10.3687C11.0795 10.279 11.0723 10.1872 11.0723 10.0937C11.0723 9.07338 11.9228 8.24612 12.9721 8.24608Z" fill="black"/>
<path d="M20.5724 24.2461C19.5231 24.2461 18.6724 23.4188 18.6724 22.3984C18.6724 21.3781 19.5231 20.551 20.5724 20.551C20.6686 20.551 20.7632 20.558 20.8556 20.5715C21.3306 20.6406 21.8641 20.62 22.2037 20.2897C22.5434 19.9594 22.5646 19.4407 22.4935 18.9788C22.4796 18.8889 22.4725 18.797 22.4725 18.7034C22.4725 17.683 23.3229 16.8558 24.3722 16.8557C25.4215 16.8557 26.2722 17.683 26.2722 18.7034C26.2722 19.7238 25.4215 20.551 24.3722 20.551C24.2761 20.551 24.1816 20.5441 24.0893 20.5306C23.6143 20.4614 23.0808 20.482 22.7412 20.8123C22.4015 21.1427 22.3802 21.6614 22.4512 22.1234C22.465 22.2131 22.4722 22.305 22.4722 22.3984C22.4722 23.4188 21.6217 24.246 20.5724 24.2461Z" fill="black"/>
<path d="M20.5723 8.24608C21.6215 8.24611 22.4723 9.07337 22.4723 10.0937C22.4722 11.1141 21.6215 11.9411 20.5723 11.9411C20.4759 11.9411 20.3812 11.9342 20.2888 11.9207C19.8137 11.8516 19.2801 11.8723 18.9405 12.2026C18.601 12.5328 18.58 13.0515 18.6513 13.5134C18.6651 13.6032 18.6722 13.6952 18.6722 13.7888C18.6722 14.4534 18.3113 15.0359 17.7697 15.3613C17.4403 15.5593 17.1544 15.8692 17.1544 16.2458C17.1544 16.6224 17.4403 16.9323 17.7697 17.1304C18.3112 17.456 18.6719 18.0388 18.6719 18.7034C18.6719 19.7237 17.8214 20.551 16.7722 20.551C16.6761 20.551 16.5815 20.5441 16.4893 20.5307C16.0142 20.4616 15.4806 20.4822 15.141 20.8125C14.8013 21.1428 14.7802 21.6616 14.8512 22.1236C14.865 22.2132 14.8721 22.3051 14.8721 22.3984C14.8721 23.4188 14.0214 24.2461 12.9721 24.2461C11.9228 24.246 11.0721 23.4188 11.072 22.3984C11.0721 21.3781 11.9228 20.5511 12.9721 20.551C13.0685 20.551 13.1633 20.5579 13.2559 20.5714C13.7308 20.6406 14.264 20.62 14.6036 20.2899C14.9432 19.9596 14.9643 19.441 14.8931 18.9791C14.8792 18.8891 14.8721 18.7971 14.8721 18.7034C14.8721 18.0368 15.2351 17.4526 15.7793 17.1276C16.1087 16.9308 16.3946 16.6217 16.3946 16.2458C16.3946 15.8699 16.1088 15.5608 15.7794 15.3641C15.2353 15.0392 14.8724 14.4552 14.8724 13.7888C14.8724 12.7684 15.7229 11.9412 16.7722 11.9411C16.8684 11.9411 16.963 11.948 17.0554 11.9615C17.5303 12.0306 18.0638 12.0099 18.4034 11.6797C18.743 11.3494 18.7642 10.8307 18.6932 10.3688C18.6794 10.2791 18.6722 10.1872 18.6722 10.0937C18.6722 9.07335 19.5229 8.24608 20.5723 8.24608Z" fill="black"/>
</g>
</svg>
