<svg width="20" height="17" viewBox="0 0 20 17" fill="none" xmlns="http://www.w3.org/2000/svg">
<g style="mix-blend-mode:hard-light">
<path d="M19.4678 5.55639C19.4678 6.57677 18.6171 7.40396 17.5678 7.40396C16.5185 7.40396 15.6679 6.57677 15.6679 5.55639C15.6679 4.536 16.5185 3.70881 17.5678 3.70881C18.6171 3.70881 19.4678 4.536 19.4678 5.55639Z" fill="white"/>
<path d="M0.467774 10.471C0.467774 9.45057 1.31841 8.62338 2.36773 8.62338C3.41705 8.62338 4.26769 9.45057 4.26769 10.471C4.26769 11.4913 3.41705 12.3185 2.36773 12.3185C1.31841 12.3185 0.467774 11.4913 0.467774 10.471Z" fill="white"/>
<path d="M6.16761 0.0136719C7.21693 0.0136718 8.06765 0.840941 8.06765 1.86133C8.06761 2.88168 7.2169 3.70871 6.16761 3.70871C6.07138 3.7087 5.97683 3.70173 5.88446 3.68828C5.40939 3.61911 4.87594 3.63971 4.53627 3.97001C4.19661 4.30031 4.17544 4.81904 4.24657 5.281C4.2604 5.37082 4.26757 5.46277 4.26757 5.55636C4.26757 6.57673 3.4171 7.40399 2.36782 7.40402C1.3185 7.40402 0.467774 6.57675 0.467773 5.55636C0.467787 4.53599 1.31851 3.70871 2.36782 3.70871C2.46395 3.70871 2.55841 3.71568 2.65069 3.72912C3.12577 3.79831 3.65918 3.77772 3.99886 3.4474C4.33854 3.11709 4.3598 2.59833 4.2888 2.13633C4.27501 2.04661 4.26786 1.95479 4.26786 1.86133C4.26786 0.840969 5.11833 0.0137174 6.16761 0.0136719Z" fill="white"/>
<path d="M13.7679 16.0137C12.7186 16.0137 11.8679 15.1864 11.8679 14.166C11.8679 13.1457 12.7186 12.3186 13.7679 12.3186C13.8642 12.3186 13.9587 12.3256 14.0511 12.3391C14.5262 12.4082 15.0596 12.3876 15.3993 12.0573C15.7389 11.727 15.7601 11.2083 15.689 10.7463C15.6751 10.6565 15.668 10.5646 15.668 10.471C15.668 9.45061 16.5184 8.62336 17.5677 8.62333C18.617 8.62333 19.4678 9.45059 19.4678 10.471C19.4678 11.4914 18.617 12.3186 17.5677 12.3186C17.4716 12.3186 17.3771 12.3117 17.2849 12.2982C16.8098 12.229 16.2764 12.2496 15.9367 12.5799C15.597 12.9103 15.5757 13.429 15.6467 13.891C15.6605 13.9807 15.6677 14.0726 15.6677 14.166C15.6677 15.1864 14.8172 16.0136 13.7679 16.0137Z" fill="white"/>
<path d="M13.7678 0.0136719C14.8171 0.0136994 15.6678 0.840958 15.6678 1.86133C15.6678 2.88166 14.817 3.70868 13.7678 3.70871C13.6715 3.70871 13.5768 3.7018 13.4843 3.68834C13.0092 3.61917 12.4757 3.63986 12.136 3.97015C11.7965 4.30044 11.7755 4.8191 11.8468 5.28097C11.8606 5.3708 11.8677 5.46277 11.8677 5.55636C11.8677 6.22095 11.5068 6.80347 10.9652 7.12893C10.6358 7.3269 10.3499 7.63681 10.3499 8.01339C10.3499 8.38998 10.6358 8.69989 10.9652 8.89795C11.5067 9.22357 11.8674 9.8064 11.8674 10.471C11.8674 11.4913 11.017 12.3186 9.96769 12.3186C9.8716 12.3186 9.77704 12.3117 9.68478 12.2983C9.2097 12.2292 8.67617 12.2498 8.33651 12.5801C7.99685 12.9104 7.9757 13.4292 8.04671 13.8912C8.06048 13.9808 8.06765 14.0727 8.06765 14.166C8.06763 15.1864 7.21692 16.0137 6.16761 16.0137C5.11833 16.0136 4.26759 15.1864 4.26757 14.166C4.26762 13.1457 5.11835 12.3187 6.16761 12.3186C6.26402 12.3186 6.35884 12.3255 6.45138 12.339C6.92628 12.4082 7.4595 12.3876 7.79909 12.0575C8.13878 11.7272 8.15986 11.2086 8.0886 10.7467C8.07473 10.6567 8.06766 10.5647 8.06765 10.471C8.06765 9.80444 8.43064 9.22019 8.97487 8.89515C9.30426 8.69843 9.5901 8.38926 9.5901 8.01336C9.5901 7.63749 9.30431 7.32834 8.97493 7.13166C8.43082 6.80675 8.06794 6.22284 8.06794 5.55636C8.06795 4.53601 8.91843 3.70875 9.96769 3.70871C10.0639 3.70871 10.1585 3.71563 10.2509 3.72907C10.7259 3.79818 11.2593 3.77749 11.5989 3.44727C11.9385 3.11704 11.9597 2.59832 11.8887 2.13644C11.8749 2.04669 11.8677 1.95482 11.8677 1.86133C11.8677 0.840942 12.7185 0.0136732 13.7678 0.0136719Z" fill="white"/>
</g>
</svg>
