<svg width="346" height="150" viewBox="0 0 346 150" fill="none" xmlns="http://www.w3.org/2000/svg">
<path d="M0.584961 40.7492V0.707396H10.2725L21.6532 29.4831H21.8198L33.2006 0.707396H42.8881V40.7492H35.4212V13.6662H35.1714L24.3735 40.7492H19.0995L8.27391 13.6662H8.05185V40.7492H0.584961Z" fill="#D5F959"/>
<path d="M67.6204 41.4429C55.7123 41.4429 48.3009 33.4789 48.3009 20.7422V20.6867C48.3009 7.94988 55.7678 0.0136719 67.6204 0.0136719C79.5008 0.0136719 86.94 7.97763 86.94 20.6867V20.7422C86.94 33.4789 79.5286 41.4429 67.6204 41.4429ZM67.6204 34.3392C74.2823 34.3392 78.3905 29.0391 78.3905 20.7422V20.6867C78.3905 12.3342 74.1991 7.11741 67.6204 7.11741C61.0695 7.11741 56.8503 12.3065 56.8503 20.6867V20.7422C56.8503 29.1224 61.0418 34.3392 67.6204 34.3392Z" fill="#D5F959"/>
<path d="M99.7086 40.7492V7.61689H88.1336V0.707396H119.694V7.61689H108.092V40.7492H99.7086Z" fill="#D5F959"/>
<path d="M124.33 40.7492V0.707396H132.713V40.7492H124.33Z" fill="#D5F959"/>
<path d="M157.445 41.4429C145.537 41.4429 138.126 33.4789 138.126 20.7422V20.6867C138.126 7.94988 145.593 0.0136719 157.445 0.0136719C169.326 0.0136719 176.765 7.97763 176.765 20.6867V20.7422C176.765 33.4789 169.353 41.4429 157.445 41.4429ZM157.445 34.3392C164.107 34.3392 168.215 29.0391 168.215 20.7422V20.6867C168.215 12.3342 164.024 7.11741 157.445 7.11741C150.894 7.11741 146.675 12.3065 146.675 20.6867V20.7422C146.675 29.1224 150.867 34.3392 157.445 34.3392Z" fill="#D5F959"/>
<path d="M182.177 40.7492V0.707396H189.506L207.604 26.7359H207.77V0.707396H216.125V40.7492H208.853L190.699 14.5264H190.533V40.7492H182.177Z" fill="#D5F959"/>
<path d="M0.584961 91.1784V51.1366H8.96786V91.1784H0.584961Z" fill="#D5F959"/>
<path d="M15.6298 91.1784V51.1366H22.9579L41.0561 77.1652H41.2226V51.1366H49.5777V91.1784H42.3052L24.1515 64.9556H23.9849V91.1784H15.6298Z" fill="#D5F959"/>
<path d="M65.8439 91.1784V58.0461H54.2688V51.1366H85.8296V58.0461H74.2268V91.1784H65.8439Z" fill="#D5F959"/>
<path d="M90.4652 91.1784V51.1366H117.002V58.0461H98.8481V67.6473H115.975V74.196H98.8481V84.2689H117.002V91.1784H90.4652Z" fill="#D5F959"/>
<path d="M123.053 91.1784V51.1366H131.436V84.2689H148.951V91.1784H123.053Z" fill="#D5F959"/>
<path d="M153.92 91.1784V51.1366H162.303V84.2689H179.818V91.1784H153.92Z" fill="#D5F959"/>
<path d="M184.787 91.1784V51.1366H193.17V91.1784H184.787Z" fill="#D5F959"/>
<path d="M217.874 91.8721C205.911 91.8721 198.582 84.0747 198.582 71.0326V71.0049C198.582 58.1849 205.938 50.4429 217.68 50.4429C227.312 50.4429 233.863 56.0482 235.195 63.5682L235.278 63.9567H226.868L226.757 63.6792C225.424 59.7943 222.232 57.5466 217.708 57.5466C211.101 57.5466 207.132 62.4305 207.132 70.9216V70.9494C207.132 79.6348 211.351 84.7684 218.013 84.7684C223.481 84.7684 227.229 81.5218 227.451 76.5824L227.479 75.9997H218.318V69.7562H235.639V74.3625C235.639 85.2679 229.033 91.8721 217.874 91.8721Z" fill="#D5F959"/>
<path d="M241.191 91.1784V51.1366H267.728V58.0461H249.574V67.6473H266.7V74.196H249.574V84.2689H267.728V91.1784H241.191Z" fill="#D5F959"/>
<path d="M273.779 91.1784V51.1366H281.107L299.205 77.1652H299.372V51.1366H307.727V91.1784H300.454L282.3 64.9556H282.134V91.1784H273.779Z" fill="#D5F959"/>
<path d="M323.993 91.1784V58.0461H312.418V51.1366H343.979V58.0461H332.376V91.1784H323.993Z" fill="#D5F959"/>
<path d="M0.584961 148.504V101.715H14.3366L26.0774 132.292H26.272L38.0128 101.715H51.7645V148.504H41.2886V119.257H41.0291L29.5802 148.504H22.7692L11.3203 119.257H11.0609V148.504H0.584961Z" fill="#D5F959"/>
<path d="M56.2403 148.504L72.0028 101.715H86.5653L102.328 148.504H89.841L86.9221 138.226H71.646L68.7271 148.504H56.2403ZM79.1705 111.897L74.111 129.665H84.4571L79.3976 111.897H79.1705Z" fill="#D5F959"/>
<path d="M125.518 149.347C111.474 149.347 102.749 140.366 102.749 125.093V125.061C102.749 109.789 111.539 100.872 125.518 100.872C137.745 100.872 146.21 108.719 146.632 119.192V119.516H135.183L135.118 119.03C134.372 114.166 130.966 110.729 125.518 110.729C118.998 110.729 114.879 116.079 114.879 125.029V125.061C114.879 134.108 119.031 139.49 125.55 139.49C130.707 139.49 134.372 136.28 135.183 131.06L135.247 130.703H146.696L146.664 131.06C146.242 141.533 137.68 149.347 125.518 149.347Z" fill="#D5F959"/>
<path d="M152.307 148.504V101.715H164.21V120.1H182.859V101.715H194.73V148.504H182.859V129.665H164.21V148.504H152.307Z" fill="#D5F959"/>
<path d="M201.865 148.504V101.715H213.768V148.504H201.865Z" fill="#D5F959"/>
<path d="M220.871 148.504V101.715H230.958L249.672 128.725H249.899V101.715H261.769V148.504H251.78L232.969 121.202H232.742V148.504H220.871Z" fill="#D5F959"/>
<path d="M268.872 148.504V101.715H300.949V111.281H280.775V120.522H299.749V129.471H280.775V138.939H300.949V148.504H268.872Z" fill="#D5F959"/>
<path d="M325.695 149.347C314.052 149.347 306.689 144.192 306.17 135.242L306.138 134.659H317.198L317.263 135.016C317.846 138.031 321.349 140.009 325.922 140.009C330.657 140.009 333.576 137.999 333.576 135.08V135.048C333.576 132.389 331.501 131.157 326.02 130.087L321.219 129.179C311.944 127.461 307.046 122.889 307.046 115.723V115.69C307.046 106.676 314.863 100.872 325.598 100.872C337.339 100.872 343.988 106.384 344.409 114.88L344.442 115.561H333.382L333.349 115.204C332.993 112.124 329.976 110.21 325.695 110.21C321.317 110.21 318.852 112.188 318.852 114.88V114.912C318.852 117.441 321.057 118.771 326.084 119.711L330.884 120.619C340.809 122.532 345.415 126.553 345.415 134.043V134.075C345.415 143.414 338.085 149.347 325.695 149.347Z" fill="#D5F959"/>
</svg>
