<svg width="1634" height="363" viewBox="0 0 1634 363" fill="none" xmlns="http://www.w3.org/2000/svg">
<path d="M1 116.004V2.92252H28.4223L60.6375 84.1878H61.109L93.3243 2.92252H120.747V116.004H99.6102V39.5193H98.903L68.3378 116.004H53.4087L22.765 39.5193H22.1364V116.004H1Z" fill="#D5F959"/>
<path d="M190.756 117.963C157.048 117.963 136.068 95.4724 136.068 59.5026V59.3458C136.068 23.376 157.205 0.963379 190.756 0.963379C224.385 0.963379 245.443 23.4543 245.443 59.3458V59.5026C245.443 95.4724 224.464 117.963 190.756 117.963ZM190.756 97.9018C209.614 97.9018 221.242 82.9339 221.242 59.5026V59.3458C221.242 35.7578 209.378 21.025 190.756 21.025C172.212 21.025 160.269 35.6794 160.269 59.3458V59.5026C160.269 83.169 172.134 97.9018 190.756 97.9018Z" fill="#D5F959"/>
<path d="M281.587 116.004V22.4356H248.822V2.92252H338.16V22.4356H305.316V116.004H281.587Z" fill="#D5F959"/>
<path d="M351.282 116.004V2.92252H375.011V116.004H351.282Z" fill="#D5F959"/>
<path d="M445.021 117.963C411.313 117.963 390.333 95.4724 390.333 59.5026V59.3458C390.333 23.376 411.47 0.963379 445.021 0.963379C478.65 0.963379 499.708 23.4543 499.708 59.3458V59.5026C499.708 95.4724 478.729 117.963 445.021 117.963ZM445.021 97.9018C463.878 97.9018 475.507 82.9339 475.507 59.5026V59.3458C475.507 35.7578 463.643 21.025 445.021 21.025C426.477 21.025 414.534 35.6794 414.534 59.3458V59.5026C414.534 83.169 426.399 97.9018 445.021 97.9018Z" fill="#D5F959"/>
<path d="M515.03 116.004V2.92252H535.774L587.004 76.4296H587.475V2.92252H611.126V116.004H590.539L539.152 41.9486H538.681V116.004H515.03Z" fill="#D5F959"/>
<path d="M661.963 116.004V2.92252H685.692V116.004H661.963Z" fill="#D5F959"/>
<path d="M704.55 116.004V2.92252H725.294L776.524 76.4296H776.995V2.92252H800.646V116.004H780.06L728.672 41.9486H728.201V116.004H704.55Z" fill="#D5F959"/>
<path d="M846.69 116.004V22.4356H813.925V2.92252H903.263V22.4356H870.419V116.004H846.69Z" fill="#D5F959"/>
<path d="M916.385 116.004V2.92252H991.502V22.4356H940.115V49.5501H988.595V68.0444H940.115V96.4912H991.502V116.004H916.385Z" fill="#D5F959"/>
<path d="M1008.63 116.004V2.92252H1032.36V96.4912H1081.94V116.004H1008.63Z" fill="#D5F959"/>
<path d="M1096.01 116.004V2.92252H1119.73V96.4912H1169.31V116.004H1096.01Z" fill="#D5F959"/>
<path d="M1183.38 116.004V2.92252H1207.11V116.004H1183.38Z" fill="#D5F959"/>
<path d="M1277.04 117.963C1243.17 117.963 1222.43 95.9426 1222.43 59.1107V59.0324C1222.43 22.8274 1243.25 0.963379 1276.49 0.963379C1303.75 0.963379 1322.3 16.7933 1326.07 38.0304L1326.3 39.1275H1302.5L1302.18 38.3438C1298.41 27.3726 1289.38 21.025 1276.57 21.025C1257.87 21.025 1246.63 34.8174 1246.63 58.7973V58.8756C1246.63 83.4041 1258.57 97.9018 1277.43 97.9018C1292.91 97.9018 1303.52 88.733 1304.15 74.7839L1304.23 73.1382H1278.3V55.5059H1327.33V68.5146C1327.33 99.3123 1308.63 117.963 1277.04 117.963Z" fill="#D5F959"/>
<path d="M1343.04 116.004V2.92252H1418.16V22.4356H1366.77V49.5501H1415.25V68.0444H1366.77V96.4912H1418.16V116.004H1343.04Z" fill="#D5F959"/>
<path d="M1435.29 116.004V2.92252H1456.03L1507.26 76.4296H1507.73V2.92252H1531.38V116.004H1510.8L1459.41 41.9486H1458.94V116.004H1435.29Z" fill="#D5F959"/>
<path d="M1577.43 116.004V22.4356H1544.66V2.92252H1634V22.4356H1601.16V116.004H1577.43Z" fill="#D5F959"/>
<path d="M0 358.981V137.946H64.9639L120.428 282.392H121.348L176.812 137.946H241.776V358.981H192.287V220.815H191.061L136.976 358.981H104.8L50.7147 220.815H49.489V358.981H0Z" fill="#D5F959"/>
<path d="M262.92 358.981L337.383 137.946H406.177L480.641 358.981H421.652L407.863 310.424H335.698L321.908 358.981H262.92ZM371.244 186.044L347.342 269.985H396.218L372.317 186.044H371.244Z" fill="#D5F959"/>
<path d="M590.191 362.963C523.848 362.963 482.633 320.533 482.633 248.387V248.234C482.633 176.087 524.154 133.963 590.191 133.963C647.953 133.963 687.943 171.032 689.935 220.509V222.04H635.849L635.543 219.743C632.019 196.766 615.931 180.529 590.191 180.529C559.394 180.529 539.936 205.803 539.936 248.08V248.234C539.936 290.97 559.547 316.397 590.344 316.397C614.705 316.397 632.019 301.233 635.849 276.571L636.156 274.886H690.241L690.088 276.571C688.096 326.048 647.647 362.963 590.191 362.963Z" fill="#D5F959"/>
<path d="M716.748 358.981V137.946H772.978V224.797H861.078V137.946H917.155V358.981H861.078V269.985H772.978V358.981H716.748Z" fill="#D5F959"/>
<path d="M950.863 358.981V137.946H1007.09V358.981H950.863Z" fill="#D5F959"/>
<path d="M1040.65 358.981V137.946H1088.3L1176.7 265.543H1177.78V137.946H1233.85V358.981H1186.66L1097.8 230.006H1096.73V358.981H1040.65Z" fill="#D5F959"/>
<path d="M1267.41 358.981V137.946H1418.94V183.133H1323.64V226.789H1413.27V269.066H1323.64V313.793H1418.94V358.981H1267.41Z" fill="#D5F959"/>
<path d="M1535.84 362.963C1480.84 362.963 1446.06 338.608 1443.61 296.331L1443.45 293.574H1495.7L1496.01 295.259C1498.77 309.505 1515.31 318.848 1536.92 318.848C1559.29 318.848 1573.08 309.351 1573.08 295.565V295.412C1573.08 282.852 1563.27 277.031 1537.38 271.976L1514.7 267.687C1470.88 259.569 1447.74 237.971 1447.74 204.119V203.965C1447.74 161.382 1484.67 133.963 1535.38 133.963C1590.85 133.963 1622.26 160.004 1624.25 200.136L1624.4 203.353H1572.16L1572 201.668C1570.32 187.116 1556.07 178.078 1535.84 178.078C1515.16 178.078 1503.52 187.422 1503.52 200.136V200.289C1503.52 212.237 1513.93 218.517 1537.68 222.959L1560.36 227.248C1607.24 236.286 1629 255.28 1629 290.664V290.817C1629 334.932 1594.37 362.963 1535.84 362.963Z" fill="#D5F959"/>
</svg>
